
        <svg xmlns="http://www.w3.org/2000/svg" xmlns:xlink="http://www.w3.org/1999/xlink" version="1.1" width="3402.6845637583892" height="2089.508547298719" viewBox="0 0 3402.6845637583892 2089.508547298719">
			
			<g transform="scale(20.134228187919458) translate(10, 10)">
				<defs id="SvgjsDefs2371"/><g id="SvgjsG2372" featureKey="7fT3kx-0" transform="matrix(0.4886259094571114,0,0,0.4886259094571114,4.706824500924731,73.7327758453576)" fill="#fff"><path d="M13.3 7.279999999999999 l-5.26 0 l0 12.72 l-2.12 0 l0 -12.72 l-5.32 0 l0 -2.2 l12.7 0 l0 2.2 z M24.548000000000002 18.76 q0 -0.5 0.34 -0.85 t0.84 -0.35 t0.85 0.35 t0.35 0.85 t-0.35 0.84 t-0.85 0.34 t-0.84 -0.34 t-0.34 -0.84 z M44.796 11.46 l2.64 0 q2.2 0 2.2 -2.12 q0 -1.1 -0.55 -1.59 t-1.65 -0.49 l-5.48 0 l0 4.8 q0.62 -0.36 1.4 -0.5 q0.58 -0.1 1.44 -0.1 z M41.956 20 l-2.18 0 l0 -14.92 l7.66 0 q1.32 0 2.3 0.51 t1.52 1.47 t0.54 2.27 t-0.54 2.29 t-1.53 1.51 t-2.29 0.53 l-2.64 0 q-1.72 0 -2.84 0.6 l0 5.74 z M63.444 18.76 q0 -0.5 0.34 -0.85 t0.84 -0.35 t0.85 0.35 t0.35 0.85 t-0.35 0.84 t-0.85 0.34 t-0.84 -0.34 t-0.34 -0.84 z M94.80000000000001 8.64 l-1.4 -1.64 q1.04 -0.98 2.44 -1.64 q1.54 -0.72 2.9 -0.72 q3.12 0 4.36 2 q0.68 1.12 0.68 2.62 q0 1.1 -0.54 2.14 q-0.94 1.78 -3.28 3.16 l-1.22 0.7 q-1.46 0.82 -1.98 1.2 q-0.78 0.58 -1.24 1.36 l8.4 0 l0 2.18 l-10.78 0 l0 -2.18 q0.42 -1.1 1.06 -1.86 q0.56 -0.7 1.5 -1.34 q0.6 -0.42 2.1 -1.3 l1.04 -0.6 q1.72 -1 2.38 -2.14 q0.4 -0.66 0.4 -1.32 q0 -0.78 -0.38 -1.36 q-0.72 -1.06 -2.5 -1.06 q-0.96 0 -2.07 0.5 t-1.87 1.3 z M122.84800000000001 20.34 q-1.66 0 -3 -0.76 q-1.5 -0.84 -2.34 -2.48 q-0.94 -1.84 -0.94 -4.5 t0.94 -4.56 q0.84 -1.68 2.34 -2.58 q1.36 -0.82 3 -0.82 t3 0.82 q1.5 0.9 2.34 2.58 q0.94 1.9 0.94 4.56 t-0.94 4.5 q-0.84 1.64 -2.34 2.48 q-1.34 0.76 -3 0.76 z M126.988 12.6 q0 -1.86 -0.58 -3.22 q-0.56 -1.24 -1.52 -1.9 q-0.92 -0.64 -2.04 -0.64 t-2.04 0.64 q-0.96 0.66 -1.52 1.9 q-0.58 1.36 -0.58 3.22 t0.58 3.16 q0.54 1.2 1.52 1.82 q0.9 0.58 2.04 0.58 t2.04 -0.58 q0.98 -0.62 1.52 -1.82 q0.58 -1.3 0.58 -3.16 z M143.436 8.64 l-1.4 -1.64 q1.04 -0.98 2.44 -1.64 q1.54 -0.72 2.9 -0.72 q3.12 0 4.36 2 q0.68 1.12 0.68 2.62 q0 1.1 -0.54 2.14 q-0.94 1.78 -3.28 3.16 l-1.22 0.7 q-1.46 0.82 -1.98 1.2 q-0.78 0.58 -1.24 1.36 l8.4 0 l0 2.18 l-10.78 0 l0 -2.18 q0.42 -1.1 1.06 -1.86 q0.56 -0.7 1.5 -1.34 q0.6 -0.42 2.1 -1.3 l1.04 -0.6 q1.72 -1 2.38 -2.14 q0.4 -0.66 0.4 -1.32 q0 -0.78 -0.38 -1.36 q-0.72 -1.06 -2.5 -1.06 q-0.96 0 -2.07 0.5 t-1.87 1.3 z M167.06400000000002 8.64 l-1.4 -1.64 q1.04 -0.98 2.44 -1.64 q1.54 -0.72 2.9 -0.72 q3.12 0 4.36 2 q0.68 1.12 0.68 2.62 q0 1.1 -0.54 2.14 q-0.94 1.78 -3.28 3.16 l-1.22 0.7 q-1.46 0.82 -1.98 1.2 q-0.78 0.58 -1.24 1.36 l8.4 0 l0 2.18 l-10.78 0 l0 -2.18 q0.42 -1.1 1.06 -1.86 q0.56 -0.7 1.5 -1.34 q0.6 -0.42 2.1 -1.3 l1.04 -0.6 q1.72 -1 2.38 -2.14 q0.4 -0.66 0.4 -1.32 q0 -0.78 -0.38 -1.36 q-0.72 -1.06 -2.5 -1.06 q-0.96 0 -2.07 0.5 t-1.87 1.3 z M199.01200000000003 5.1 l-8.36 15.46 l-2.44 0 l8.32 -15.46 l2.48 0 z M212.94 8.64 l-1.4 -1.64 q1.04 -0.98 2.44 -1.64 q1.54 -0.72 2.9 -0.72 q3.12 0 4.36 2 q0.68 1.12 0.68 2.62 q0 1.1 -0.54 2.14 q-0.94 1.78 -3.28 3.16 l-1.22 0.7 q-1.46 0.82 -1.98 1.2 q-0.78 0.58 -1.24 1.36 l8.4 0 l0 2.18 l-10.78 0 l0 -2.18 q0.42 -1.1 1.06 -1.86 q0.56 -0.7 1.5 -1.34 q0.6 -0.42 2.1 -1.3 l1.04 -0.6 q1.72 -1 2.38 -2.14 q0.4 -0.66 0.4 -1.32 q0 -0.78 -0.38 -1.36 q-0.72 -1.06 -2.5 -1.06 q-0.96 0 -2.07 0.5 t-1.87 1.3 z M240.988 20.34 q-1.66 0 -3 -0.76 q-1.5 -0.84 -2.34 -2.48 q-0.94 -1.84 -0.94 -4.5 t0.94 -4.56 q0.84 -1.68 2.34 -2.58 q1.36 -0.82 3 -0.82 t3 0.82 q1.5 0.9 2.34 2.58 q0.94 1.9 0.94 4.56 t-0.94 4.5 q-0.84 1.64 -2.34 2.48 q-1.34 0.76 -3 0.76 z M245.128 12.6 q0 -1.86 -0.58 -3.22 q-0.56 -1.24 -1.52 -1.9 q-0.92 -0.64 -2.04 -0.64 t-2.04 0.64 q-0.96 0.66 -1.52 1.9 q-0.58 1.36 -0.58 3.22 t0.58 3.16 q0.54 1.2 1.52 1.82 q0.9 0.58 2.04 0.58 t2.04 -0.58 q0.98 -0.62 1.52 -1.82 q0.58 -1.3 0.58 -3.16 z M261.57599999999996 8.64 l-1.4 -1.64 q1.04 -0.98 2.44 -1.64 q1.54 -0.72 2.9 -0.72 q3.12 0 4.36 2 q0.68 1.12 0.68 2.62 q0 1.1 -0.54 2.14 q-0.94 1.78 -3.28 3.16 l-1.22 0.7 q-1.46 0.82 -1.98 1.2 q-0.78 0.58 -1.24 1.36 l8.4 0 l0 2.18 l-10.78 0 l0 -2.18 q0.42 -1.1 1.06 -1.86 q0.56 -0.7 1.5 -1.34 q0.6 -0.42 2.1 -1.3 l1.04 -0.6 q1.72 -1 2.38 -2.14 q0.4 -0.66 0.4 -1.32 q0 -0.78 -0.38 -1.36 q-0.72 -1.06 -2.5 -1.06 q-0.96 0 -2.07 0.5 t-1.87 1.3 z M285.02399999999994 7.279999999999999 l0 -2.2 l9.34 0 l0 2.2 l-3.7 3.54 q2.14 0.22 3.39 1.38 t1.25 3.02 q0 1.48 -0.82 2.68 q-0.78 1.14 -2.13 1.79 t-2.95 0.65 q-0.94 0 -2.07 -0.34 t-2.11 -0.92 q-1.06 -0.64 -1.68 -1.44 l1.34 -1.86 q0.96 1.2 2.26 1.82 q1.14 0.56 2.26 0.56 q1.02 0 1.87 -0.37 t1.35 -1.01 q0.52 -0.7 0.52 -1.56 q0 -1.16 -0.94 -1.76 q-0.88 -0.54 -2.5 -0.54 l-1.76 0 l0 -2.16 l3.58 -3.48 l-6.5 0 z"/></g><g id="SvgjsG2373" featureKey="nameLeftFeature-0" transform="matrix(2.1454111160228306,0,0,2.1454111160228306,30.25387383287148,23.09177767954339)" fill="#fff"><path d="M1.28 20 l0 -16.78 l3.06 0 l0 16.78 l-3.06 0 z M16.22 3.219999999999999 l-3.4 8.38 l3.4 8.4 l-3.1 0 l-1.84 -5.2 l-1.84 5.2 l-3.08 0 l3.38 -8.4 l-3.38 -8.38 l3.1 0 l1.82 5.2 l1.84 -5.2 l3.1 0 z"/></g><g id="SvgjsG2374" featureKey="nameRightFeature-0" transform="matrix(2.1454111160228306,0,0,2.1454111160228306,68.28367108160644,23.09177665653165)" fill="#fff"><path d="M0.8 15.14 l0 -2.88 l5.9 0 l0 2.88 l-5.9 0 z M1.2 12.66 l0 2.08 l5.1 0 l0 -2.08 l-5.1 0 z M10.06 20 l0 -12.84 l-1.84 0 l0 -2.88 l0.86 0 c0.64 0 1 -0.24 0.98 -1.06 l3.56 0 l0 16.78 l-3.56 0 z M13.219999999999999 3.620000000000001 l-2.78 0 c-0.12 0.66 -0.52 1.06 -1.36 1.06 l-0.46 0 l0 2.08 l1.84 0 l0 12.84 l2.76 0 l0 -15.98 z M19.44 3.2399999999999984 l3.68 0 l0 10.26 l1.26 0 l0 2.6 l-1.26 0 l0 3.9 l-3.56 0 l0 -3.9 l-4.52 0 l0 -2.16 c-0.02 -0.48 3.8 -9.32 4.4 -10.7 z M19.96 19.6 l2.76 0 l0 -3.9 l1.26 0 l0 -1.8 l-1.26 0 l0 -10.26 l-3.02 0 c-0.54 1.24 -4.26 9.86 -4.26 10.3 l0 1.76 l4.52 0 l0 3.9 z M19.96 7.619999999999999 l0 6.28 l-2.66 0 z M19.560000000000002 9.58 l-1.66 3.92 l1.66 0 l0 -3.92 z"/></g>
			</g>
		</svg>
	